<?xml version="1.0" standalone="no"?>
<!DOCTYPE svg PUBLIC "-//W3C//DTD SVG 20010904//EN"
 "http://www.w3.org/TR/2001/REC-SVG-20010904/DTD/svg10.dtd">
<svg version="1.0" xmlns="http://www.w3.org/2000/svg"
 width="260.000000pt" height="260.000000pt" viewBox="0 0 260.000000 260.000000"
 preserveAspectRatio="xMidYMid meet">
<metadata>
Created by potrace 1.11, written by Peter Selinger 2001-2013
</metadata>
<g transform="translate(0.000000,260.000000) scale(0.100000,-0.100000)"
fill="#000000" stroke="none">
<path d="M312 2592 c2 -5 115 -115 252 -245 l250 -237 174 0 c122 0 173 3 170
11 -2 6 -114 116 -248 245 l-245 233 -178 0 c-98 1 -177 -3 -175 -7z"/>
<path d="M970 2596 c0 -2 132 -129 293 -281 160 -153 316 -303 346 -333 222
-230 165 -624 -109 -762 -93 -48 -119 -50 -567 -50 l-423 0 0 473 0 473 -249
237 c-138 130 -252 237 -255 237 -3 0 -6 -583 -6 -1295 l0 -1295 255 0 255 0
-1 118 -1 117 -244 230 -245 230 718 5 718 6 96 26 c352 96 583 333 671 686
31 123 31 341 1 462 -84 333 -298 566 -617 670 -109 36 -229 50 -438 50 -109
0 -198 -2 -198 -4z"/>
</g>
</svg>
