<svg xmlns="http://www.w3.org/2000/svg" viewBox="0 0 512 512"><path d="M298.6 405.3c0-5.9-4.8-10.7-10.7-10.7H160c-5.9 0-10.7 4.8-10.7 10.7 -5.9 0-10.7 4.8-10.7 10.7v42.7c0 5.9 4.8 10.7 10.7 10.7 0 5.9 4.8 10.7 10.7 10.7h128c5.9 0 10.7-4.8 10.7-10.7 5.9 0 10.7-4.8 10.7-10.7v-42.7C309.3 410.1 304.5 405.3 298.6 405.3zM288 450.8L288 450.8c-3.2 1.9-5.9 4.6-7.8 7.8H167.8c-1.9-3.2-4.6-5.9-7.8-7.8v-27.1c3.2-1.9 5.9-4.6 7.8-7.8h112.4c1.9 3.2 4.6 5.9 7.8 7.8V450.8z"/><path d="M426.6 448h-32V437.3c0-5.9-4.8-10.7-10.7-10.7h-32v-42.7h10.7c5.9 0 10.7-4.8 10.7-10.7 0-5.9-4.8-10.7-10.7-10.7h-21.3H234.7v-10.7h0c0 0 0 0 0.1 0h85.3c5.9 0 10.7-4.8 10.7-10.7s-4.8-10.7-10.7-10.7H247.9c6-30.9 7.6-62.9 8-77.6 27.4-5.1 52.7-16.7 73.1-34 28.6-24.2 44.4-56.6 44.4-91.1 0-34.5-15.8-66.9-44.4-91.1C300.8 13.1 263.5 0 224 0c-39.6 0-76.8 13.1-104.9 36.9 -28.6 24.2-44.3 56.5-44.4 90.9 0 0 0 0 0 0.1 0 0 0 0.1 0 0.2 0 34.5 15.8 66.9 44.4 91.1 20.4 17.3 45.6 28.9 73.1 34 0.2 5.8 0.5 14.2 1.2 24.2h-24.5c-4.4-12.4-16.3-21.3-30.2-21.3 -17.6 0-32 14.3-32 32 0 13.9 8.9 25.8 21.3 30.2v12.5c-5.9 0-10.7 4.8-10.7 10.7s4.8 10.7 10.7 10.7h85.3c0 0 0 0 0.1 0 0 0 0 0 0 0v10.7H106.7 85.3c-5.9 0-10.7 4.8-10.7 10.7 0 5.9 4.8 10.7 10.7 10.7h10.7v106.7H85.3c-5.9 0-10.7 4.8-10.7 10.7s4.8 10.7 10.7 10.7h277.3c5.9 0 10.7-4.8 10.7-10.7s-4.8-10.7-10.7-10.7h-10.7v-42.7h21.3v10.7c0 5.9 4.8 10.7 10.7 10.7h42.7c5.9 0 10.7-4.8 10.7-10.7S432.5 448 426.6 448zM234.7 234.3v-43.5c6.6-1.6 12.6-4.6 17.6-8.6 4.3 3.6 9.1 7.9 14.7 13 9.3 8.7 18 17.3 24.2 23.7C274.4 227.4 255.2 232.9 234.7 234.3zM309.5 207.2c-6.4-6.6-16.8-17.2-28.4-28 -6.1-5.7-11.6-10.5-16.5-14.6 1.3-3.8 2-7.8 2-12 0-0.7 0-1.5-0.1-2.2 14.2-2.7 28.9-4.8 37.6-5.9 18.4-2.4 35.9-4 47-4.9C347.7 166.3 332.3 190.1 309.5 207.2zM351.4 118.2c-11.2 0.9-29.9 2.7-49.8 5.2 -16.5 2.1-30.7 4.4-42.6 6.8 -2.2-3-4.9-5.6-7.9-7.9 13.2-21.9 27.3-37.8 38.4-48.3 10.8-10.2 20.3-16.9 25.9-20.5C335.5 70.5 348.7 93.1 351.4 118.2zM234.7 21.7c22.9 1.6 44.2 8.2 62.1 18.6 -15.4 11-40.2 32.4-62.1 67.8V21.7zM213.3 21.7v86.1c-21.6-34.8-46.7-56.3-62.2-67.4C169.1 30 190.3 23.3 213.3 21.7zM132.5 53.5c12.1 7.9 41 29.3 64.6 68.7 -5.5 4.2-9.9 9.6-12.6 15.8 -27.9-10-69.1-16.6-87.9-19.2C99.1 93.4 112.4 70.7 132.5 53.5zM136.2 205.6c-21.4-16.8-35.8-39.7-39.4-65.2 7.4 1.1 17.3 2.6 28.1 4.6 25 4.6 44.5 9.8 57.2 14.9 0.2 1.2 0.6 2.4 0.9 3.6 -5.5 4.2-11.6 9.3-18.5 15.4C152.6 189.4 142.2 199.6 136.2 205.6zM138.7 298.6c-5.9 0-10.7-4.8-10.7-10.7 0-5.9 4.8-10.7 10.7-10.7 5.9 0 10.7 4.8 10.7 10.7C149.3 293.9 144.5 298.6 138.7 298.6zM149.3 330.6v-12.5h0c9.1-3.2 16.3-10.4 19.5-19.5h26.4c1.2 10.3 2.7 21.2 4.8 32H149.3zM213.3 234.3c-21.6-1.5-41.7-7.5-58.9-16.8 12.2-12.2 27-25.7 40.4-36.2 5.1 4.5 11.5 7.8 18.5 9.4V234.3zM202.7 152.7c0-9.9 9.6-18 21.3-18 11.8 0 21.3 8.1 21.3 18 0 9.9-9.6 18-21.3 18C212.2 170.7 202.7 162.6 202.7 152.7zM234.4 255.7c-0.6 15.9-2.4 46.7-8.3 75h-4.3c-5.9-28.3-7.7-59.1-8.3-75 3.5 0.2 6.9 0.3 10.4 0.3S231 255.9 234.4 255.7zM330.6 490.6H117.3V384H330.6V490.6z"/></svg>