<svg xmlns="http://www.w3.org/2000/svg" viewBox="0 0 383.6 383.6"><path d="M359.4 62.6H239.7c-0.9-6-3-11.6-5.9-16.6l99.9-31.3c4-1.2 6.2-5.4 4.9-9.4 -1.2-4-5.4-6.2-9.4-4.9L223.6 33.5c-8.5-7.4-19.6-11.9-31.8-11.9 -12.2 0-23.3 4.5-31.8 11.9L54.3 0.3c-4-1.2-8.2 1-9.4 4.9 -1.2 4 1 8.2 4.9 9.4l99.9 31.3c-2.9 5-4.9 10.6-5.9 16.6H24.2c-12.4 0-22.6 10.1-22.6 22.6v253.9c0 12.4 10.1 22.6 22.6 22.6h3.6v14.5c0 4.1 3.4 7.5 7.5 7.5s7.5-3.4 7.5-7.5v-14.5h298v14.5c0 4.1 3.4 7.5 7.5 7.5s7.5-3.4 7.5-7.5v-14.5h3.6c12.4 0 22.6-10.1 22.6-22.6V85.1C382 72.7 371.8 62.6 359.4 62.6zM191.8 36.6c15.9 0 29.2 11.1 32.6 26h-65.3C162.6 47.7 175.9 36.6 191.8 36.6zM367 339c0 4.2-3.4 7.6-7.6 7.6H24.2c-4.2 0-7.6-3.4-7.6-7.6V85.1c0-4.2 3.4-7.6 7.6-7.6h335.2c4.2 0 7.6 3.4 7.6 7.6V339z"/><path d="M347 103.7c-0.6-3.4-3.4-5.9-6.8-6.2 -98.5-8.3-198.4-8.3-296.9 0 -3.4 0.3-6.2 2.8-6.8 6.2 -11.9 69.6-11.9 140.2 0 209.8 0.6 3.4 3.4 5.9 6.8 6.2 49.2 4.1 98.8 6.2 148.4 6.2 49.6 0 99.2-2.1 148.4-6.2 3.4-0.3 6.2-2.8 6.8-6.2C358.9 243.8 358.9 173.3 347 103.7zM333.1 305.2c-93.8 7.6-188.9 7.6-282.7 0 -10.4-64.1-10.4-129.1 0-193.2 93.8-7.6 188.9-7.6 282.7 0C343.5 176.1 343.5 241 333.1 305.2z"/><path d="M321.1 168.7c-4.1 0.2-7.3 3.8-7.1 7.9 1.5 26.3 1.1 53-1.1 79.3 -0.3 4.1 2.7 7.8 6.9 8.1 0.2 0 0.4 0 0.6 0 3.9 0 7.1-3 7.5-6.9 2.2-27 2.6-54.3 1.1-81.3C328.8 171.6 325.2 168.5 321.1 168.7z"/><path d="M319.7 159.6c0.2 0 0.5 0 0.7 0 4.1-0.4 7.1-4.1 6.7-8.2 -0.7-7.7-1.7-15.5-2.7-23.2 -0.6-4.1-4.4-7-8.4-6.4 -4.1 0.6-7 4.3-6.4 8.4 1 7.5 1.9 15.1 2.6 22.6C312.6 156.7 315.9 159.6 319.7 159.6z"/><path d="M357.6 325.8c-5.8-3.8-13.4 1.8-11.3 8.4 0.9 3 3.7 5.2 6.8 5.3 3.3 0.2 6.3-1.9 7.4-5C361.7 331.4 360.5 327.7 357.6 325.8z"/></svg>