<svg xmlns="http://www.w3.org/2000/svg" viewBox="0 0 512 512"><path d="M466.5 49.4c-7.1-8.3-17.4-13.1-28.3-13.1H402.4v-11.2C402.4 11.3 391.1 0 377.3 0H134.7c-13.8 0-25.1 11.3-25.1 25.1v11.2H73.8c-10.9 0-21.2 4.8-28.3 13.1 -7 8.2-10 19-8.3 29.6 9.4 57.8 45.8 108.9 97.4 136.9 4.7 11.3 10.1 22.1 16 32.1 19 32 42.6 54.1 68.6 64.8 2.6 26.6-15.1 51.9-41.8 57.9 -0.1 0-0.1 0-0.2 0 -5.2 1.2-9.1 5.9-9.1 11.5v54.4h-22c-19.6 0-35.5 15.9-35.5 35.5v28.1c0 6.5 5.3 11.9 11.9 11.9H390.6c6.5 0 11.9-5.3 11.9-11.8v-28.1c0-19.6-15.9-35.5-35.5-35.5h-22V382.2c0-5.6-3.9-10.3-9.1-11.5 0 0-0.1 0-0.1 0 -26.9-6.1-44.7-31.5-41.8-58.4 25.5-10.9 48.8-32.8 67.5-64.3 5.9-10 11.3-20.8 16-32.1 51.6-28 88-79.1 97.4-136.9C476.5 68.4 473.4 57.6 466.5 49.4zM60.7 75.2c-0.6-3.8 0.4-7.5 2.9-10.5 2.6-3 6.3-4.7 10.2-4.7h35.8v21.8c0 34.2 4.4 67.3 12.6 97.6C89.7 153.7 67.4 116.4 60.7 75.2zM366.9 460.2c6.5 0 11.9 5.3 11.9 11.9v16.2H134.4v-16.2c0-6.5 5.3-11.8 11.9-11.8H366.9zM321.2 394v42.5H192V394H321.2zM223 370.3c2.9-3.2 5.6-6.7 8-10.5 7.9-12.3 12-26.4 12.2-40.7 4.2 0.6 8.5 0.9 12.7 0.9 4.7 0 9.3-0.4 13.9-1 0.3 19.2 7.8 37.5 20.3 51.3H223zM378.7 81.8c0 58.4-13.4 113.1-37.7 154 -23.2 39-53.4 60.5-85 60.5 -31.6 0-61.8-21.5-85-60.5 -24.3-41-37.7-95.7-37.7-154V25.1c0-0.8 0.6-1.4 1.4-1.4h242.6c0.8 0 1.4 0.6 1.4 1.4V81.8zM451.3 75.2c-6.7 41.2-29.1 78.5-61.6 104.2 8.3-30.3 12.6-63.4 12.6-97.6V60h35.8c3.9 0 7.7 1.7 10.2 4.7C450.9 67.7 452 71.4 451.3 75.2z"/><path d="M327.9 121.7c-1.4-4.3-5.1-7.4-9.6-8.1l-35.8-5.2 -16-32.4c-2-4-6.1-6.6-10.6-6.6 -4.5 0-8.6 2.6-10.6 6.6l-16 32.4 -35.8 5.2c-4.5 0.6-8.2 3.8-9.6 8.1 -1.4 4.3-0.2 9 3 12.1l25.9 25.2 -6.1 35.6c-0.8 4.4 1.1 8.9 4.7 11.6 3.6 2.7 8.5 3 12.5 0.9L256 190.3l32 16.8c1.7 0.9 3.6 1.4 5.5 1.4 2.5 0 4.9-0.8 7-2.3 3.7-2.7 5.5-7.1 4.7-11.6l-6.1-35.6 25.9-25.2C328.2 130.7 329.3 125.9 327.9 121.7zM278.1 146.4c-2.8 2.7-4.1 6.6-3.4 10.5l3.1 18.1 -16.2-8.5c-1.7-0.9-3.6-1.4-5.5-1.4 -1.9 0-3.8 0.5-5.5 1.4l-16.2 8.5 3.1-18.1c0.7-3.8-0.6-7.8-3.4-10.5l-13.1-12.8 18.2-2.6c3.9-0.6 7.2-3 8.9-6.5l8.1-16.5 8.1 16.5c1.7 3.5 5.1 5.9 8.9 6.5l18.2 2.6L278.1 146.4z"/></svg>