<svg xmlns="http://www.w3.org/2000/svg" viewBox="0 0 512 512"><path d="M477.6 128.1C443.4 68.9 388.3 26.5 322.2 8.8 256.2-8.9 187.3 0.2 128.1 34.4 68.9 68.6 26.5 123.8 8.8 189.8c-17.7 66-8.6 135 25.6 194.2C68.6 443.1 123.8 485.5 189.8 503.2c22 5.9 44.4 8.8 66.6 8.8 44.3 0 88.1-11.6 127.5-34.4 59.2-34.2 101.5-89.4 119.2-155.4C520.9 256.2 511.8 187.2 477.6 128.1zM477.4 315.3c-15.8 59.1-53.8 108.6-106.8 139.2 -53 30.6-114.8 38.7-174 22.9 -59.1-15.8-108.6-53.8-139.2-106.8 -30.6-53-38.7-114.8-22.9-174C50.4 137.5 88.4 88.1 141.4 57.5c35.3-20.4 74.5-30.8 114.2-30.8 19.9 0 40 2.6 59.7 7.9 59.1 15.8 108.6 53.8 139.2 106.8C485.1 194.4 493.3 256.2 477.4 315.3z"/><path d="M378.8 231.9l-164.5-95c-8.7-5-19.2-5-27.9 0 -8.7 5-13.9 14.1-13.9 24.2v190c0 10.1 5.2 19.1 13.9 24.2 4.4 2.5 9.2 3.8 13.9 3.8 4.8 0 9.6-1.3 13.9-3.8l164.5-95c8.7-5 13.9-14.1 13.9-24.2C392.7 245.9 387.5 236.9 378.8 231.9zM365.5 257.1l-164.5 95c-0.2 0.1-0.6 0.4-1.2 0 -0.6-0.4-0.6-0.8-0.6-1.1v-190c0-0.2 0-0.7 0.6-1.1 0.2-0.1 0.5-0.2 0.6-0.2 0.3 0 0.5 0.1 0.6 0.2l164.5 95c0.2 0.1 0.6 0.4 0.6 1.1C366.1 256.7 365.7 257 365.5 257.1z"/><path d="M413.3 134.4c-31.7-40.9-79.3-68.4-130.7-75.5 -7.3-1-14 4.1-15 11.4 -1 7.3 4.1 14 11.4 15 44.5 6.1 85.8 29.9 113.2 65.4 2.6 3.4 6.6 5.2 10.5 5.2 2.8 0 5.7-0.9 8.1-2.8C416.7 148.6 417.8 140.3 413.3 134.4z"/></svg>